<?xml version="1.0" encoding="UTF-8"?>
<!DOCTYPE svg PUBLIC "-//W3C//DTD SVG 1.1//EN" "http://www.w3.org/Graphics/SVG/1.1/DTD/svg11.dtd">
<svg xmlns="http://www.w3.org/2000/svg" version="1.1" width="32px" height="34px" style="shape-rendering:geometricPrecision; text-rendering:geometricPrecision; image-rendering:optimizeQuality; fill-rule:evenodd; clip-rule:evenodd" xmlns:xlink="http://www.w3.org/1999/xlink">
<g><path style="opacity:0.944" fill="#1dd25d" d="M 11.5,-0.5 C 14.1667,-0.5 16.8333,-0.5 19.5,-0.5C 24.753,1.75103 28.753,5.4177 31.5,10.5C 31.5,14.1667 31.5,17.8333 31.5,21.5C 25.9344,31.9674 17.601,34.8007 6.5,30C 3.54918,27.5611 1.21585,24.7278 -0.5,21.5C -0.5,17.8333 -0.5,14.1667 -0.5,10.5C 1.89656,5.1042 5.89656,1.43753 11.5,-0.5 Z"/></g>
<g><path style="opacity:1" fill="#071409" d="M 7.5,8.5 C 14.1386,7.82801 20.472,8.82801 26.5,11.5C 27.6869,12.8244 27.3535,13.8244 25.5,14.5C 18.76,11.3547 11.76,10.6881 4.5,12.5C 4.5,11.5 4.5,10.5 4.5,9.5C 5.79105,9.73731 6.79105,9.40397 7.5,8.5 Z"/></g>
<g><path style="opacity:1" fill="#0d1c0f" d="M 8.5,13.5 C 14.5195,12.8995 19.8528,14.3995 24.5,18C 24.1667,18.5 23.8333,19 23.5,19.5C 18.3096,16.4306 12.8096,15.7639 7,17.5C 6.5,17.1667 6,16.8333 5.5,16.5C 6.33977,15.265 7.33977,14.265 8.5,13.5 Z"/></g>
<g><path style="opacity:1" fill="#08170b" d="M 6.5,19.5 C 10.5138,19.3345 14.5138,19.5012 18.5,20C 20.2861,20.1962 21.6195,21.0295 22.5,22.5C 22.1667,22.8333 21.8333,23.1667 21.5,23.5C 16.2296,22.3488 11.2296,21.0155 6.5,19.5 Z"/></g>
</svg>
