<?xml version="1.0" encoding="UTF-8"?>
<!DOCTYPE svg PUBLIC "-//W3C//DTD SVG 1.1//EN" "http://www.w3.org/Graphics/SVG/1.1/DTD/svg11.dtd">
<svg xmlns="http://www.w3.org/2000/svg" version="1.1" width="480px" height="480px" style="shape-rendering:geometricPrecision; text-rendering:geometricPrecision; image-rendering:optimizeQuality; fill-rule:evenodd; clip-rule:evenodd" xmlns:xlink="http://www.w3.org/1999/xlink">
<g><path style="opacity:0.984" fill="#0e1c2f" d="M 358.5,35.5 C 278.998,35.8326 199.665,35.4993 120.5,34.5C 189.463,-3.12419 260.463,-7.29086 333.5,22C 342.483,25.5268 350.816,30.0268 358.5,35.5 Z"/></g>
<g><path style="opacity:0.996" fill="#0d1a31" d="M 120.5,34.5 C 199.665,35.4993 278.998,35.8326 358.5,35.5C 362.173,37.0002 365.506,39.0002 368.5,41.5C 282.167,41.5 195.833,41.5 109.5,41.5C 112.961,38.9308 116.628,36.5974 120.5,34.5 Z"/></g>
<g><path style="opacity:0.997" fill="#091935" d="M 109.5,41.5 C 195.833,41.5 282.167,41.5 368.5,41.5C 389.568,54.5569 407.901,70.8903 423.5,90.5C 394.069,91.159 364.736,91.8257 335.5,92.5C 322.793,89.9168 310.126,89.9168 297.5,92.5C 216.833,91.8333 136.167,91.1667 55.5,90.5C 67.3315,75.1687 80.9982,61.6687 96.5,50C 100.716,46.9439 105.049,44.1106 109.5,41.5 Z"/></g>
<g><path style="opacity:0.999" fill="#fdfdfd" d="M 335.5,92.5 C 362.767,98.7823 383.1,114.116 396.5,138.5C 402.314,149.75 405.647,161.75 406.5,174.5C 406.809,183.257 406.142,191.924 404.5,200.5C 402.049,208.667 398.883,216.667 395,224.5C 390.402,231.373 385.569,238.04 380.5,244.5C 372.36,251.74 363.36,257.74 353.5,262.5C 340.688,267.534 327.355,270.368 313.5,271C 306.675,275.665 300.009,280.498 293.5,285.5C 285.143,291.532 276.81,297.532 268.5,303.5C 261.286,308.267 254.286,313.267 247.5,318.5C 242.196,321.812 237.196,325.479 232.5,329.5C 231.755,336.404 230.755,343.404 229.5,350.5C 227.539,355.099 225.539,359.765 223.5,364.5C 219.53,369.476 215.53,374.476 211.5,379.5C 201.994,387.752 190.994,393.085 178.5,395.5C 156.922,399.082 137.922,393.748 121.5,379.5C 112.312,370.121 105.978,359.121 102.5,346.5C 101.942,345.21 100.942,344.377 99.5,344C 70.4787,332.154 41.4787,320.321 12.5,308.5C 8.92322,297.788 6.42322,286.788 5,275.5C 3.14298,258.551 2.30964,241.551 2.5,224.5C 4.5,224.833 6.5,225.167 8.5,225.5C 23.5371,232.346 38.8704,238.679 54.5,244.5C 79.4189,255.202 104.586,265.535 130,275.5C 142.184,268.495 155.351,264.995 169.5,265C 174.388,258.286 179.054,251.453 183.5,244.5C 188.08,238.34 192.414,232.007 196.5,225.5C 201.487,218.204 206.487,210.87 211.5,203.5C 216.982,196.551 221.982,189.217 226.5,181.5C 226.501,166.513 229.834,152.18 236.5,138.5C 240.422,131.671 245.089,125.338 250.5,119.5C 263.276,105.608 278.942,96.6078 297.5,92.5C 310.126,89.9168 322.793,89.9168 335.5,92.5 Z"/></g>
<g><path style="opacity:0.999" fill="#051839" d="M 55.5,90.5 C 136.167,91.1667 216.833,91.8333 297.5,92.5C 278.942,96.6078 263.276,105.608 250.5,119.5C 178.826,120.163 107.492,119.497 36.5,117.5C 41.6737,107.664 48.007,98.6636 55.5,90.5 Z"/></g>
<g><path style="opacity:0.997" fill="#06183a" d="M 423.5,90.5 C 435.175,104.86 444.842,120.527 452.5,137.5C 433.659,137.17 414.993,137.503 396.5,138.5C 383.1,114.116 362.767,98.7823 335.5,92.5C 364.736,91.8257 394.069,91.159 423.5,90.5 Z"/></g>
<g><path style="opacity:0.999" fill="#06193c" d="M 36.5,117.5 C 107.492,119.497 178.826,120.163 250.5,119.5C 245.089,125.338 240.422,131.671 236.5,138.5C 166.335,137.501 96.002,137.167 25.5,137.5C 28.6748,130.477 32.3414,123.811 36.5,117.5 Z"/></g>
<g><path style="opacity:1" fill="#0b1b41" d="M 376.5,174.5 C 371.5,174.5 366.5,174.5 361.5,174.5C 356.661,149.497 341.494,136.497 316,135.5C 291.58,137.419 277.08,150.419 272.5,174.5C 267.5,174.5 262.5,174.5 257.5,174.5C 263.209,140.958 283.043,122.958 317,120.5C 343.605,122.105 362.272,135.105 373,159.5C 374.361,164.472 375.527,169.472 376.5,174.5 Z"/></g>
<g><path style="opacity:1" fill="#fdfdfd" d="M 361.5,174.5 C 361.771,204.9 346.771,221.9 316.5,225.5C 294.156,223.662 279.656,211.996 273,190.5C 272.501,185.177 272.334,179.844 272.5,174.5C 277.08,150.419 291.58,137.419 316,135.5C 341.494,136.497 356.661,149.497 361.5,174.5 Z"/></g>
<g><path style="opacity:0.998" fill="#081941" d="M 25.5,137.5 C 96.002,137.167 166.335,137.501 236.5,138.5C 229.834,152.18 226.501,166.513 226.5,181.5C 226.5,179.167 226.5,176.833 226.5,174.5C 154.762,174.17 83.0957,174.503 11.5,175.5C 14.7843,162.313 19.451,149.646 25.5,137.5 Z"/></g>
<g><path style="opacity:0.995" fill="#081941" d="M 452.5,137.5 C 458.521,148.884 463.188,160.884 466.5,173.5C 446.576,174.487 426.576,174.821 406.5,174.5C 405.647,161.75 402.314,149.75 396.5,138.5C 414.993,137.503 433.659,137.17 452.5,137.5 Z"/></g>
<g><path style="opacity:0.995" fill="#091b47" d="M 466.5,173.5 C 469.305,183.054 471.639,192.721 473.5,202.5C 450.575,203.489 427.575,203.822 404.5,203.5C 404.5,202.5 404.5,201.5 404.5,200.5C 406.142,191.924 406.809,183.257 406.5,174.5C 426.576,174.821 446.576,174.487 466.5,173.5 Z"/></g>
<g><path style="opacity:0.998" fill="#091b47" d="M 226.5,181.5 C 221.982,189.217 216.982,196.551 211.5,203.5C 142.833,203.5 74.1667,203.5 5.5,203.5C 6.37008,193.808 8.37008,184.475 11.5,175.5C 83.0957,174.503 154.762,174.17 226.5,174.5C 226.5,176.833 226.5,179.167 226.5,181.5 Z"/></g>
<g><path style="opacity:0.999" fill="#0c204e" d="M 5.5,203.5 C 74.1667,203.5 142.833,203.5 211.5,203.5C 206.487,210.87 201.487,218.204 196.5,225.5C 133.833,225.5 71.1667,225.5 8.5,225.5C 6.5,225.167 4.5,224.833 2.5,224.5C 3.2018,217.434 4.2018,210.434 5.5,203.5 Z"/></g>
<g><path style="opacity:1" fill="#112351" d="M 257.5,174.5 C 262.5,174.5 267.5,174.5 272.5,174.5C 272.334,179.844 272.501,185.177 273,190.5C 279.656,211.996 294.156,223.662 316.5,225.5C 346.771,221.9 361.771,204.9 361.5,174.5C 366.5,174.5 371.5,174.5 376.5,174.5C 375.643,214.19 355.477,236.19 316,240.5C 291.066,238.712 273.066,226.712 262,204.5C 258.235,194.843 256.735,184.843 257.5,174.5 Z"/></g>
<g><path style="opacity:1" fill="#0f2454" d="M 8.5,225.5 C 71.1667,225.5 133.833,225.5 196.5,225.5C 192.414,232.007 188.08,238.34 183.5,244.5C 140.5,244.5 97.5,244.5 54.5,244.5C 38.8704,238.679 23.5371,232.346 8.5,225.5 Z"/></g>
<g><path style="opacity:0.998" fill="#0e2352" d="M 404.5,200.5 C 404.5,201.5 404.5,202.5 404.5,203.5C 427.575,203.822 450.575,203.489 473.5,202.5C 475.128,216.445 475.794,230.445 475.5,244.5C 443.833,244.5 412.167,244.5 380.5,244.5C 385.569,238.04 390.402,231.373 395,224.5C 398.883,216.667 402.049,208.667 404.5,200.5 Z"/></g>
<g><path style="opacity:1" fill="#12295b" d="M 54.5,244.5 C 97.5,244.5 140.5,244.5 183.5,244.5C 179.054,251.453 174.388,258.286 169.5,265C 155.351,264.995 142.184,268.495 130,275.5C 104.586,265.535 79.4189,255.202 54.5,244.5 Z"/></g>
<g><path style="opacity:0.997" fill="#11285a" d="M 380.5,244.5 C 412.167,244.5 443.833,244.5 475.5,244.5C 475.751,250.892 475.418,257.225 474.5,263.5C 433.997,263.832 393.663,263.499 353.5,262.5C 363.36,257.74 372.36,251.74 380.5,244.5 Z"/></g>
<g><path style="opacity:0.998" fill="#132e61" d="M 353.5,262.5 C 393.663,263.499 433.997,263.832 474.5,263.5C 474.06,270.916 473.06,278.249 471.5,285.5C 412.069,286.831 352.736,286.831 293.5,285.5C 300.009,280.498 306.675,275.665 313.5,271C 327.355,270.368 340.688,267.534 353.5,262.5 Z"/></g>
<g><path style="opacity:0.998" fill="#133568" d="M 293.5,285.5 C 352.736,286.831 412.069,286.831 471.5,285.5C 470.278,292.061 468.611,298.394 466.5,304.5C 400.331,304.832 334.331,304.499 268.5,303.5C 276.81,297.532 285.143,291.532 293.5,285.5 Z"/></g>
<g><path style="opacity:1" fill="#183669" d="M 205.5,299.5 C 199.69,300.49 193.69,300.823 187.5,300.5C 175.016,294.722 162.349,289.222 149.5,284C 166.596,278.148 182.596,280.481 197.5,291C 200.371,293.703 203.038,296.536 205.5,299.5 Z"/></g>
<g><path style="opacity:0.998" fill="#133b6e" d="M 268.5,303.5 C 334.331,304.499 400.331,304.832 466.5,304.5C 465.607,310.172 463.941,315.506 461.5,320.5C 390.167,319.833 318.833,319.167 247.5,318.5C 254.286,313.267 261.286,308.267 268.5,303.5 Z"/></g>
<g><path style="opacity:1" fill="#174073" d="M 205.5,299.5 C 214.37,309.785 218.037,321.785 216.5,335.5C 211.833,335.5 207.167,335.5 202.5,335.5C 202.806,332.615 202.473,329.948 201.5,327.5C 200.266,316.697 195.599,307.697 187.5,300.5C 193.69,300.823 199.69,300.49 205.5,299.5 Z"/></g>
<g><path style="opacity:0.999" fill="#144174" d="M 247.5,318.5 C 318.833,319.167 390.167,319.833 461.5,320.5C 459.871,325.735 457.871,330.735 455.5,335.5C 381.167,335.5 306.833,335.5 232.5,335.5C 232.5,333.5 232.5,331.5 232.5,329.5C 237.196,325.479 242.196,321.812 247.5,318.5 Z"/></g>
<g><path style="opacity:0.995" fill="#154578" d="M 12.5,308.5 C 41.4787,320.321 70.4787,332.154 99.5,344C 100.942,344.377 101.942,345.21 102.5,346.5C 78.1667,347.167 53.8333,347.833 29.5,348.5C 22.2893,335.881 16.6226,322.548 12.5,308.5 Z"/></g>
<g><path style="opacity:0.998" fill="#14477a" d="M 232.5,329.5 C 232.5,331.5 232.5,333.5 232.5,335.5C 306.833,335.5 381.167,335.5 455.5,335.5C 453.438,340.625 451.104,345.625 448.5,350.5C 375.5,350.5 302.5,350.5 229.5,350.5C 230.755,343.404 231.755,336.404 232.5,329.5 Z"/></g>
<g><path style="opacity:0.998" fill="#144d80" d="M 229.5,350.5 C 302.5,350.5 375.5,350.5 448.5,350.5C 445.737,355.701 442.737,360.701 439.5,365.5C 367.331,365.833 295.331,365.499 223.5,364.5C 225.539,359.765 227.539,355.099 229.5,350.5 Z"/></g>
<g><path style="opacity:1" fill="#1a5386" d="M 201.5,327.5 C 202.473,329.948 202.806,332.615 202.5,335.5C 207.167,335.5 211.833,335.5 216.5,335.5C 213.959,356.874 202.626,371.374 182.5,379C 156.049,385.767 135.716,377.6 121.5,354.5C 121.833,354.167 122.167,353.833 122.5,353.5C 133.379,358.293 144.379,362.793 155.5,367C 178.599,370.039 193.765,360.539 201,338.5C 201.499,334.848 201.665,331.182 201.5,327.5 Z"/></g>
<g><path style="opacity:0.995" fill="#145184" d="M 102.5,346.5 C 105.978,359.121 112.312,370.121 121.5,379.5C 97.6725,380.498 73.6725,380.831 49.5,380.5C 41.3348,370.851 34.6682,360.184 29.5,348.5C 53.8333,347.833 78.1667,347.167 102.5,346.5 Z"/></g>
<g><path style="opacity:0.998" fill="#145386" d="M 223.5,364.5 C 295.331,365.499 367.331,365.833 439.5,365.5C 436.314,371.218 432.648,376.552 428.5,381.5C 356.167,380.833 283.833,380.167 211.5,379.5C 215.53,374.476 219.53,369.476 223.5,364.5 Z"/></g>
<g><path style="opacity:0.998" fill="#13598c" d="M 211.5,379.5 C 283.833,380.167 356.167,380.833 428.5,381.5C 424.894,387.438 420.561,392.771 415.5,397.5C 336.5,396.833 257.5,396.167 178.5,395.5C 190.994,393.085 201.994,387.752 211.5,379.5 Z"/></g>
<g><path style="opacity:0.999" fill="#135e91" d="M 121.5,379.5 C 137.922,393.748 156.922,399.082 178.5,395.5C 257.5,396.167 336.5,396.833 415.5,397.5C 411.167,402.5 406.5,407.167 401.5,411.5C 293.167,411.5 184.833,411.5 76.5,411.5C 66.3873,402.06 57.3873,391.726 49.5,380.5C 73.6725,380.831 97.6725,380.498 121.5,379.5 Z"/></g>
<g><path style="opacity:0.998" fill="#136699" d="M 76.5,411.5 C 184.833,411.5 293.167,411.5 401.5,411.5C 395.823,417.176 389.823,422.509 383.5,427.5C 287.335,426.501 191.001,426.167 94.5,426.5C 87.8909,422.224 81.8909,417.224 76.5,411.5 Z"/></g>
<g><path style="opacity:0.999" fill="#136d9f" d="M 94.5,426.5 C 191.001,426.167 287.335,426.501 383.5,427.5C 378.833,430.833 374.167,434.167 369.5,437.5C 282.833,436.167 196.167,436.167 109.5,437.5C 104.196,434.188 99.1955,430.521 94.5,426.5 Z"/></g>
<g><path style="opacity:0.997" fill="#1373a5" d="M 369.5,437.5 C 363.127,441.687 356.461,445.353 349.5,448.5C 275.335,447.501 201.002,447.167 126.5,447.5C 120.332,444.92 114.665,441.586 109.5,437.5C 196.167,436.167 282.833,436.167 369.5,437.5 Z"/></g>
<g><path style="opacity:0.994" fill="#1379ab" d="M 126.5,447.5 C 201.002,447.167 275.335,447.501 349.5,448.5C 343.696,452.444 337.362,455.444 330.5,457.5C 269.664,457.168 208.998,457.501 148.5,458.5C 140.854,455.343 133.52,451.677 126.5,447.5 Z"/></g>
<g><path style="opacity:0.988" fill="#1380b2" d="M 148.5,458.5 C 208.998,457.501 269.664,457.168 330.5,457.5C 270.089,482.456 209.423,482.789 148.5,458.5 Z"/></g>
</svg>
